<svg xmlns="http://www.w3.org/2000/svg" fill="none" viewBox="0 0 48 48"><path stroke-linejoin="round" stroke-width="4" stroke="#333" d="M24 44a19.937 19.937 0 0 0 14.142-5.858A19.937 19.937 0 0 0 44 24a19.938 19.938 0 0 0-5.858-14.142A19.937 19.937 0 0 0 24 4 19.938 19.938 0 0 0 9.858 9.858 19.938 19.938 0 0 0 4 24a19.937 19.937 0 0 0 5.858 14.142A19.938 19.938 0 0 0 24 44Z" data-follow-stroke="#333"/><path stroke-linejoin="round" stroke-linecap="round" stroke-width="4" stroke="#333" d="M24 28.625v-4a6 6 0 1 0-6-6" data-follow-stroke="#333"/><path fill="#333" d="M24 37.625a2.5 2.5 0 1 0 0-5 2.5 2.5 0 0 0 0 5Z" clip-rule="evenodd" fill-rule="evenodd" data-follow-fill="#333"/></svg>